# xmcd
#
# Track frame offsets: 
#        151
#        17382
#        36529
#        48690
#        65197
#        76408
#        90477
#        103788
#        119861
#        134950
#
# Disc length: 2018 seconds
#
# Revision: 0
# Processed by: cddbd v1.5.1PL2 Copyright (c) Steve Scherf et al.
# Submitted via: ExactAudioCopy v0.95b4
#
DISCID=9807e00a
DTITLE=เอม  อภัสรา - หมั้นไม่มีมื้อแต่ง
DYEAR=2002
DGENRE=Country
TTITLE0=สายตาอ่านกิน
TTITLE1=หมั้นไม่มีมีมื้อแต่ง
TTITLE2=รักเธอคนเดียว
TTITLE3=ปากว่าไม่แต่ใจรัก
TTITLE4=สุดท้ายที่ใจคุณ
TTITLE5=มักบ่าวฟังลำ
TTITLE6=กระทงเปลี่ยว
TTITLE7=มีใหม่ใจเศร้า
TTITLE8=เนื้อคู่อยู่ไหน
TTITLE9=อภัสราพาเต้ย
EXTD=
EXTT0=
EXTT1=
EXTT2=
EXTT3=
EXTT4=
EXTT5=
EXTT6=
EXTT7=
EXTT8=
EXTT9=
PLAYORDER=
